<svg width="1080" height="1080" viewBox="0 0 1080 1080" fill="none" xmlns="http://www.w3.org/2000/svg">
<path fill-rule="evenodd" clip-rule="evenodd" d="M844.478 792.568C790.165 915.146 673.731 999 540.5 999C533.441 999 526.43 998.765 519.472 998.301C523.177 997.994 526.856 997.588 530.507 997.085C609.641 987.847 680.15 945.765 731.178 883.106C776.139 864.437 815.195 832.862 844.478 792.568ZM876.837 625.398C873.776 717.082 827.935 795.632 761.367 839.816C795.24 782.747 815 714.081 815 640.2C815 515.228 758.462 333.824 672.714 216.874C689.679 223.245 706.703 233.991 723.578 248.879C752.493 274.389 779.394 310.749 802.467 352.99C821.65 388.109 837.726 426.426 849.978 464.548C866.099 521.714 875.508 577.408 876.837 625.398ZM754.336 245.036C722.247 212.266 686.45 190.484 648.581 186.617C603.654 135.08 552.192 102 497.5 102C482.166 102 467.086 104.6 452.333 109.479C481.323 91.5549 510.892 82 540.5 82C582.612 82 624.644 101.329 665.045 136.575C697.203 164.63 727.358 201.973 754.336 245.036ZM872.965 457.636C818.404 264.514 690.093 58 540.5 58C341.401 58 180 423.818 180 637C180 637.536 180.001 638.071 180.003 638.606C180.001 639.138 180 639.67 180 640.2C180 716.22 200.921 786.719 236.61 844.744C300.662 951.94 412.831 1023 540.5 1023C739.599 1023 901 850.182 901 637C901 633.197 900.949 629.345 900.847 625.447C900.949 622.178 901 618.896 901 615.6C901 569.41 890.902 513.562 872.965 457.636ZM257.956 833.751C224.124 777.697 204.293 710.81 204.003 638.607C204.385 544.212 238.568 414.324 294.257 307.919C322.183 254.562 354.86 208.396 390.171 175.883C425.537 143.32 461.763 126 497.5 126C533.237 126 569.463 143.32 604.829 175.883C608.887 179.62 612.91 183.537 616.895 187.624C517.22 204.112 432.887 343.354 394.38 476.156C329.022 550.921 285 679.204 285 765.8C285 827.545 307.381 883.686 343.92 925.404C310.237 901.777 280.927 870.585 257.956 833.751ZM685.631 897.068C682.828 899.736 679.981 902.345 677.093 904.893C678.708 902.566 680.284 900.205 681.819 897.812C683.093 897.574 684.364 897.326 685.631 897.068ZM697.381 869.467C703.863 867.615 710.243 865.473 716.51 863.056C762.645 804.273 791 726.54 791 640.2C791 545.677 756.746 414.924 700.743 307.919C681.505 271.163 660.014 237.82 636.959 210.001C636.806 210 636.653 210 636.5 210C607.732 210 578.359 223.35 549.422 248.879C520.507 274.389 493.606 310.749 470.533 352.99C455.087 381.268 441.655 411.62 430.612 442.273C453.115 425.721 477.307 416 502.5 416C622.622 416 720 637.007 720 765.8C720 803.039 711.859 838.24 697.381 869.467ZM500.225 974.986C509.436 974.889 518.56 974.301 527.575 973.244C575.904 966.43 619.11 940.198 649.66 901.652C645.3 901.883 640.913 902 636.5 902C490.421 902 372 773.774 372 615.6C372 591.456 374.759 564.673 379.955 536.62C376.454 542.31 373.04 548.175 369.719 554.195C331.914 622.727 309 706.218 309 765.8C309 882.096 395.914 973.671 500.225 974.986ZM667.12 875.875C657.078 877.278 646.856 878 636.5 878C505.437 878 396 762.353 396 615.6C396 578.385 403.072 533.86 415.949 488.029C421.728 481.685 427.63 475.86 433.629 470.619C456.924 450.269 480.143 440 502.5 440C524.857 440 548.076 450.269 571.371 470.619C594.652 490.957 616.474 520.102 635.281 554.195C673.086 622.727 696 706.218 696 765.8C696 806.444 685.384 844.068 667.12 875.875Z" fill="black"/>
</svg>
